# xmcd CD database file generated by OrangeCD 6.2
#
# Track frame offsets:
#	150
#	18162
#	34107
#	62835
#	84272
#	105467
#	127702
#	156337
#	176095
#	198905
#
# Disc length: 2950 seconds
#
# Revision: 1
# Processed by: cddbd v1.5.2PL0 Copyright (c) Steve Scherf et al.
# Submitted via: OrangeCD 6.2
#
DISCID=720b840a
DTITLE=Blindstone - Manifesto
DYEAR=2005
DGENRE=
TTITLE0=Groovin'
TTITLE1=Temple Trippin'
TTITLE2=Sleeping Alone
TTITLE3=Are You Experienced?
TTITLE4=Somewhere
TTITLE5=Say It Ain't So
TTITLE6=By Grabthar's Hammer...
TTITLE7=Wasted days
TTITLE8=Unifunk (It's Time)
TTITLE9=Open Up Your Heart
EXTD=
EXTT0=
EXTT1=
EXTT2=
EXTT3=
EXTT4=
EXTT5=
EXTT6=
EXTT7=
EXTT8=
EXTT9=
PLAYORDER=
